#!OML:ASF E:\Steps\Project 1\Capture day 1\Session 2\Subject.ASF
:FULLY-SPECIFIED
:DEGREES
659
root -4.44188 15.7853 -9.60927 46.944 81.277 20.7072
lowerback -26.3896 -1.07729 -6.99165
upperback -0.441571 1.16456 -1.86044
thorax 14.264 0.188387 2.329
lowerneck -20.3315 6.40357 17.8285
upperneck 42.9491 18.1483 -17.3272
head 41.8832 11.8035 -11.2887
rclavicle 5.66536e-015 1.31198e-014
rhumerus -30.2941 -9.49865 -86.6762
rradius 33.2641
rwrist -4.39342
rhand 36.5458 -61.7434
rfingers 7.12502
rthumb 59.4754 -76.0628
lclavicle 5.66536e-015 1.31198e-014
lhumerus -28.6499 5.12271 77.8079
lradius 20.7997
lwrist -4.7031
lhand -21.0248 -12.2028
lfingers 7.12502
lthumb 5.35037 17.7097
rfemur -15.9141 9.85121 21.3462
rtibia 10.317
rfoot -30.0166 -11.113
rtoes -15.3207
lfemur -55.449 -7.38571 -16.3809
ltibia 37.4249
lfoot -9.96327 7.41449
ltoes -40.9986
660
root -4.36631 15.7747 -9.60028 46.6432 81.0648 20.5927
lowerback -26.176 -0.939906 -7.07375
upperback -0.343423 1.35907 -1.91706
thorax 14.2451 0.269259 2.38044
lowerneck -20.3859 6.38674 17.8154
upperneck 43.0067 18.0917 -17.2269
head 41.9754 11.7909 -11.2318
rclavicle -1.72943e-014 1.03368e-014
rhumerus -30.0587 -9.56472 -86.8301
rradius 33.765
rwrist -4.2933
rhand 36.6732 -61.8541
rfingers 7.12502
rthumb 59.5849 -76.0629
lclavicle -1.72943e-014 1.03368e-014
lhumerus -28.7983 5.26455 77.6231
lradius 20.4489
lwrist -4.90764
lhand -21.2264 -11.899
lfingers 7.12502
lthumb 5.15571 18.0183
rfemur -15.4172 6.17607 21.3357
rtibia 10.1322
rfoot -30.2882 -6.80187
rtoes -12.3659
lfemur -55.4362 -7.50687 -15.9218
ltibia 35.5769
lfoot -9.30691 7.05688
ltoes -39.6859
661
root -4.2916 15.7623 -9.59288 46.5888 80.8154 20.6063
lowerback -26.0756 -0.82279 -7.16169
upperback -0.266961 1.54985 -2.02953
thorax 14.2653 0.351186 2.36997
lowerneck -20.4914 6.35067 17.7722
upperneck 43.0932 17.9682 -17.1107
head 41.9998 11.7315 -11.176
rclavicle 2.06736e-014 -3.18055e-015
rhumerus -29.854 -7.84256 -87.4462
rradius 34.5382
rwrist -6.03069
rhand 36.6797 -61.8761
rfingers 7.12502
rthumb 59.5905 -76.0792
lclavicle 2.06736e-014 -3.18055e-015
lhumerus -28.8439 6.09208 77.1159
lradius 19.8951
lwrist -5.91631
lhand -21.2857 -11.8902
lfingers 7.12502
lthumb 5.09844 18.0285
rfemur -15.2574 3.27932 21.2187
rtibia 10.456
rfoot -30.6734 -3.36994
rtoes -10.0562
lfemur -55.5441 -7.67207 -15.4311
ltibia 33.7364
lfoot -8.89153 6.54318
ltoes -35.6178
662
root -4.21576 15.7486 -9.58973 46.5495 80.5636 20.5621
lowerback -26.0437 -0.699665 -7.13709
upperback -0.222131 1.7291 -2.19216
thorax 14.2919 0.439831 2.23383
lowerneck -20.579 6.32899 17.7858
upperneck 43.1658 17.8425 -16.9989
head 42.0401 11.6905 -11.1448
rclavicle 8.64713e-015 -3.18055e-014
rhumerus -29.4076 -7.66282 -87.7888
rradius 34.685
rwrist -6.32008
rhand 36.783 -61.754
rfingers 7.12502
rthumb 59.6792 -75.8667
lclavicle 8.64713e-015 -3.18055e-014
lhumerus -28.9316 6.59235 76.5827
lradius 19.4042
lwrist -6.44569
lhand -20.9629 -12.1252
lfingers 7.12502
lthumb 5.41013 17.7857
rfemur -14.8892 5.79075 21.0969
rtibia 10.3688
rfoot -30.6427 -6.33387
rtoes -12.6793
lfemur -55.7056 -7.71437 -15.0571
ltibia 31.8418
lfoot -8.40088 6.02014
ltoes -32.6265
663
root -4.13477 15.7355 -9.58129 46.7788 80.3616 20.9611
lowerback -25.8491 -0.633606 -7.21893
upperback -0.145122 1.84368 -2.31755
thorax 14.2684 0.490458 2.17481
lowerneck -20.5906 6.32488 17.8469
upperneck 43.2131 17.7697 -16.9129
head 42.12 11.6941 -11.1323
rclavicle 4.87022e-015 8.34896e-015
rhumerus -29.0813 -7.38273 -88.1699
rradius 35.0075
rwrist -6.74008
rhand 36.6918 -61.7658
rfingers 7.12502
rthumb 59.6009 -75.9584
lclavicle 4.87022e-015 8.34896e-015
lhumerus -29.1735 6.89864 76.1229
lradius 19.0496
lwrist -6.70674
lhand -20.5096 -12.0304
lfingers 7.12502
lthumb 5.8478 17.8689
rfemur -14.2264 5.75909 21.0066
rtibia 10.053
rfoot -30.5517 -6.49585
rtoes -13.084
lfemur -55.6043 -7.75808 -14.775
ltibia 29.9142
lfoot -8.06278 5.56609
ltoes -30.3341
664
root -4.05219 15.7189 -9.57459 46.67 80.2497 20.9053
lowerback -25.7376 -0.579649 -7.19489
upperback -0.109649 1.90982 -2.39754
thorax 14.2467 0.525723 2.09129
lowerneck -20.5873 6.33489 17.876
upperneck 43.2447 17.7605 -16.8397
head 42.2107 11.7075 -11.0907
rclavicle -5.06901e-015 -5.96354e-015
rhumerus -28.8622 -6.79221 -88.5658
rradius 35.4661
rwrist -7.40852
rhand 36.5712 -61.8133
rfingers 7.12502
rthumb 59.4973 -76.1107
lclavicle -5.06901e-015 -5.96354e-015
lhumerus -29.489 7.7309 75.5474
lradius 18.6601
lwrist -7.60222
lhand -20.3765 -11.7913
lfingers 7.12502
lthumb 5.97635 18.1044
rfemur -13.9062 6.81355 21.0364
rtibia 10.3012
rfoot -30.7892 -7.7648
rtoes -14.1152
lfemur -55.6956 -7.75557 -14.3691
ltibia 28.1936
lfoot -7.73059 5.4917
ltoes -31.2301
665
root -3.96435 15.6979 -9.56862 46.0419 79.973 20.2166
lowerback -25.8632 -0.507918 -7.23029
upperback -0.0424234 2.03296 -2.41498
thorax 14.3869 0.571935 2.13795
lowerneck -20.6164 6.36768 17.8568
upperneck 43.2371 17.8232 -16.7944
head 42.3185 11.7252 -11.0238
rclavicle 4.13472e-014 -5.80451e-014
rhumerus -28.5256 -5.67686 -88.8779
rradius 35.8958
rwrist -7.99241
rhand 36.8173 -61.6278
rfingers 7.12502
rthumb 59.7087 -75.7104
lclavicle 4.13472e-014 -5.80451e-014
lhumerus -29.7414 8.66283 75.117
lradius 18.2687
lwrist -8.32869
lhand -20.5402 -11.8127
lfingers 7.12502
lthumb 5.81824 18.0875
rfemur -13.5427 6.86842 20.952
rtibia 10.0776
rfoot -30.6966 -7.70051
rtoes -15.0635
lfemur -55.8558 -7.62621 -13.9386
ltibia 26.4683
lfoot -7.27996 5.83739
ltoes -34.0721
666
root -3.86289 15.6788 -9.54062 45.792 79.3994 20.1869
lowerback -25.964 -0.45355 -7.82672
upperback 0.168349 2.31222 -2.44746
thorax 14.6548 0.637926 2.54365
lowerneck -20.7217 6.38674 17.8345
upperneck 43.2518 17.8192 -16.7023
head 42.4572 11.7208 -10.9472
rclavicle 9.54166e-015 -1.86858e-014
rhumerus -28.0446 -4.46958 -89.1697
rradius 36.2639
rwrist -8.6776
rhand 37.076 -61.4352
rfingers 7.12502
rthumb 59.9303 -75.2885
lclavicle 9.54166e-015 -1.86858e-014
lhumerus -29.7933 9.852 74.7176
lradius 17.7276
lwrist -9.28754
lhand -20.5442 -11.9548
lfingers 7.12502
lthumb 5.81445 17.9455
rfemur -12.971 7.7714 20.5978
rtibia 10.2087
rfoot -30.8952 -8.2738
rtoes -16.0185
lfemur -55.4431 -7.45232 -13.6791
ltibia 24.4352
lfoot -6.92292 6.21647
ltoes -33.9292
667
root -3.76992 15.6659 -9.55665 46.3269 78.9392 20.8982
lowerback -25.8168 -0.254359 -7.79844
upperback 0.275749 2.59712 -2.70131
thorax 14.6894 0.777353 2.33548
lowerneck -20.8398 6.35975 17.7883
upperneck 43.3354 17.7153 -16.5577
head 42.5581 11.6755 -10.8628
rclavicle 1.23246e-014 -3.57812e-015
rhumerus -27.5913 -4.49185 -89.3551
rradius 36.5347
rwrist -8.71181
rhand 37.1948 -61.6353
rfingers 7.12502
rthumb 60.0319 -75.382
lclavicle 1.23246e-014 -3.57812e-015
lhumerus -29.8668 11.0812 74.1367
lradius 17.1496
lwrist -10.6743
lhand -20.5563 -11.9005
lfingers 7.12502
lthumb 5.80278 18
rfemur -12.3579 7.11779 20.1371
rtibia 10.0837
rfoot -30.9906 -7.48572
rtoes -16.9876
lfemur -55.154 -7.62044 -13.7217
ltibia 22.6048
lfoot -6.60519 6.5353
ltoes -34.3024
668
root -3.68088 15.6378 -9.54131 43.446 78.5978 17.8028
lowerback -26.0224 0.0332599 -7.53074
upperback 0.251503 2.90661 -2.6683
thorax 14.7563 0.93022 2.34136
lowerneck -20.8328 6.34654 17.82
upperneck 43.3925 17.6628 -16.457
head 42.6837 11.6878 -10.8237
rclavicle -7.55382e-015 4.69132e-014
rhumerus -27.156 -4.42869 -89.484
rradius 36.6116
rwrist -8.40506
rhand 37.4771 -61.3699
rfingers 7.12502
rthumb 60.2729 -74.8604
lclavicle -7.55382e-015 4.69132e-014
lhumerus -30.1946 11.3941 73.7414
lradius 16.8805
lwrist -11.132
lhand -20.7769 -11.5594
lfingers 7.12502
lthumb 5.58975 18.3469
rfemur -12.3111 7.42355 20.4644
rtibia 10.1635
rfoot -30.8992 -7.3004
rtoes -19.1609
lfemur -55.3215 -6.94844 -12.8681
ltibia 21.0014
lfoot -6.24226 6.90057
ltoes -34.653
